<?xml version="1.0" ?><!DOCTYPE svg  PUBLIC '-//W3C//DTD SVG 1.1//EN'  'http://www.w3.org/Graphics/SVG/1.1/DTD/svg11.dtd'><svg enable-background="new 0 0 91 91" height="91px" id="Layer_1" version="1.1" viewBox="0 0 91 91" width="91px" xml:space="preserve" xmlns="http://www.w3.org/2000/svg" xmlns:xlink="http://www.w3.org/1999/xlink"><g><rect height="3.4" transform="matrix(-0.9664 -0.257 0.257 -0.9664 56.1055 94.5026)" width="13.779" x="27.34" y="41.884"/><rect height="3.399" transform="matrix(-0.9664 -0.257 0.257 -0.9664 53.5641 113.9443)" width="13.779" x="27.34" y="51.772"/><rect height="13.781" transform="matrix(-0.2568 -0.9665 0.9665 -0.2568 39.0773 100.8443)" width="3.4" x="56.613" y="28.507"/><rect height="13.781" transform="matrix(-0.2568 -0.9665 0.9665 -0.2568 30.6195 111.8472)" width="3.399" x="56.613" y="37.261"/><rect height="13.782" transform="matrix(-0.2568 -0.9665 0.9665 -0.2568 22.1599 122.8486)" width="3.399" x="56.613" y="46.014"/><rect height="5.101" transform="matrix(-0.2568 -0.9665 0.9665 -0.2568 20.044 136.4991)" width="3.4" x="60.807" y="57.992"/><rect height="5.099" transform="matrix(-0.2568 -0.9665 0.9665 -0.2568 7.3481 131.1992)" width="3.399" x="52.418" y="60.225"/><path d="M20.891,66.916l24.934,6.801c0.146,0.039,0.297,0.06,0.447,0.06c0.148,0,0.299-0.021,0.445-0.06l24.934-6.801   c0.74-0.201,1.254-0.873,1.254-1.64V22.492c0-0.529-0.248-1.029-0.668-1.351c-0.42-0.32-0.971-0.427-1.479-0.289L46.271,27.53   l-24.488-6.678c-0.504-0.138-1.057-0.031-1.479,0.289c-0.42,0.322-0.668,0.822-0.668,1.351v42.784   C19.637,66.043,20.15,66.715,20.891,66.916z M47.971,30.59l21.533-5.873v39.261l-21.533,5.872V30.59z M23.037,24.718L44.57,30.59   v39.26l-21.533-5.872V24.718z"/></g></svg>