<?xml version="1.0" encoding="iso-8859-1"?>
<!-- Generator: Adobe Illustrator 16.0.0, SVG Export Plug-In . SVG Version: 6.00 Build 0)  -->
<!DOCTYPE svg PUBLIC "-//W3C//DTD SVG 1.1//EN" "http://www.w3.org/Graphics/SVG/1.1/DTD/svg11.dtd">
<svg version="1.1" id="Capa_1" xmlns="http://www.w3.org/2000/svg" xmlns:xlink="http://www.w3.org/1999/xlink" x="0px" y="0px"
	 width="483.078px" height="483.078px" viewBox="0 0 483.078 483.078" style="enable-background:new 0 0 483.078 483.078;"
	 xml:space="preserve">
<g>
	<path d="M408.681,64.293L370.243,8.471L430.304,0l38.503,55.854L408.681,64.293z M348.625,72.734l-38.438-55.825l-60.065,8.44
		l38.442,55.823L348.625,72.734z M228.508,89.617L190.066,33.79l-60.061,8.44l38.443,55.823L228.508,89.617z M69.947,50.67
		l-60.058,8.44l8.412,60.061l90.089-12.676L69.947,50.67z M351.883,361.775v-60.653h-212.28v60.653H351.883z M442.858,179.82h30.331
		v242.608c0,33.491-27.135,60.649-60.653,60.649H78.952c-33.466,0-60.651-27.158-60.651-60.649V179.82v-60.649h90.978L78.952,179.82
		h60.651l30.327-60.649h60.651l-30.324,60.649h60.646l30.332-60.649h60.648l-30.327,60.649h60.653l30.327-60.649h60.653
		L442.858,179.82z M442.858,270.801H48.625v30.321h59.765v60.653H48.625v30.322h394.233v-30.322h-60.649v-60.653h60.649V270.801z"/>
</g>
<g>
</g>
<g>
</g>
<g>
</g>
<g>
</g>
<g>
</g>
<g>
</g>
<g>
</g>
<g>
</g>
<g>
</g>
<g>
</g>
<g>
</g>
<g>
</g>
<g>
</g>
<g>
</g>
<g>
</g>
</svg>
